{
  "accessors": [
    {
      "bufferView": 2,
      "componentType": 5126,
      "count": 858,
      "max": [
        0.05675499886274338,
        0.05675499886274338,
        0.38718000054359436
      ],
      "min": [
        -0.05675499886274338,
        -0.05675499886274338,
        -7.999999797903001e-05
      ],
      "type": "VEC3"
    },
    {
      "bufferView": 2,
      "byteOffset": 10296,
      "componentType": 5126,
      "count": 858,
      "max": [
        0.9983856678009033,
        0.9983856678009033,
        1.0
      ],
      "min": [
        -0.9983856678009033,
        -0.9983856678009033,
        -1.0
      ],
      "type": "VEC3"
    },
    {
      "bufferView": 1,
      "componentType": 5126,
      "count": 858,
      "max": [
        0.9903020262718201,
        0.9844560027122498
      ],
      "min": [
        0.027806999161839485,
        0.015544000081717968
      ],
      "type": "VEC2"
    },
    {
      "bufferView": 0,
      "componentType": 5125,
      "count": 4224,
      "type": "SCALAR"
    }
  ],
  "asset": {
    "extras": {
      "author": "DoobiDooba (https://sketchfab.com/DoobiDooba)",
      "license": "CC-BY-4.0 (http://creativecommons.org/licenses/by/4.0/)",
      "source": "https://sketchfab.com/3d-models/bowling-pin-old-low-poly-b2f373e81e0448fda16771ef62ea2c1b",
      "title": "Bowling_Pin_Old (Low poly)"
    },
    "generator": "Sketchfab-12.68.0",
    "version": "2.0"
  },
  "bufferViews": [
    {
      "buffer": 0,
      "byteLength": 16896,
      "name": "floatBufferViews",
      "target": 34963
    },
    {
      "buffer": 0,
      "byteLength": 6864,
      "byteOffset": 16896,
      "byteStride": 8,
      "name": "floatBufferViews",
      "target": 34962
    },
    {
      "buffer": 0,
      "byteLength": 20592,
      "byteOffset": 23760,
      "byteStride": 12,
      "name": "floatBufferViews",
      "target": 34962
    }
  ],
  "buffers": [
    {
      "byteLength": 44352,
      "uri": "scene.bin"
    }
  ],
  "images": [
    {
      "uri": "textures/Main_baseColor.png"
    },
    {
      "uri": "textures/Main_metallicRoughness.png"
    }
  ],
  "materials": [
    {
      "doubleSided": true,
      "name": "Main",
      "pbrMetallicRoughness": {
        "baseColorTexture": {
          "index": 0
        },
        "metallicFactor": 0.22016606696859048,
        "metallicRoughnessTexture": {
          "index": 1
        }
      }
    }
  ],
  "meshes": [
    {
      "name": "Object_0",
      "primitives": [
        {
          "attributes": {
            "NORMAL": 1,
            "POSITION": 0,
            "TEXCOORD_0": 2
          },
          "indices": 3,
          "material": 0,
          "mode": 4
        }
      ]
    }
  ],
  "nodes": [
    {
      "children": [
        1
      ],
      "matrix": [
        1.3464384078979492,
        0.0,
        0.0,
        0.0,
        0.0,
        2.989693843375883e-16,
        -1.3464384078979492,
        0.0,
        0.0,
        1.3464384078979492,
        2.989693843375883e-16,
        0.0,
        0.0,
        0.0,
        0.0,
        1.0
      ],
      "name": "Sketchfab_model"
    },
    {
      "children": [
        2
      ],
      "name": "Bowling_Pin.obj.cleaner.materialmerger.gles"
    },
    {
      "mesh": 0,
      "name": "Object_2"
    }
  ],
  "samplers": [
    {
      "magFilter": 9729,
      "minFilter": 9987,
      "wrapS": 10497,
      "wrapT": 10497
    }
  ],
  "scene": 0,
  "scenes": [
    {
      "name": "Sketchfab_Scene",
      "nodes": [
        0
      ]
    }
  ],
  "textures": [
    {
      "sampler": 0,
      "source": 0
    },
    {
      "sampler": 0,
      "source": 1
    }
  ]
}
